<?xml version="1.0" standalone="no"?>
<!DOCTYPE svg PUBLIC "-//W3C//DTD SVG 20010904//EN"
 "http://www.w3.org/TR/2001/REC-SVG-20010904/DTD/svg10.dtd">
<svg version="1.0" xmlns="http://www.w3.org/2000/svg"
 width="200.000000pt" height="200.000000pt" viewBox="0 0 200.000000 200.000000"
 preserveAspectRatio="xMidYMid meet">
<metadata>
Created by potrace 1.11, written by Peter Selinger 2001-2013
</metadata>
<g transform="translate(0.000000,200.000000) scale(0.100000,-0.100000)"
fill="#000000" stroke="none">
<path d="M0 1809 l0 -191 48 38 c26 21 56 47 66 56 11 10 22 15 25 12 9 -8
-113 -114 -131 -114 -4 0 -8 -362 -8 -805 l0 -805 223 0 222 0 22 137 c21 124
34 166 48 152 7 -8 -18 -119 -27 -119 -4 0 -5 -6 -2 -13 2 -7 1 -46 -4 -85
l-8 -72 152 0 152 0 -13 58 c-15 63 -69 228 -90 277 -36 80 -37 86 -15 130 11
23 37 61 57 85 37 43 38 43 44 19 5 -16 7 -5 8 33 1 31 5 59 10 63 6 3 36 -11
67 -31 126 -81 200 -76 321 22 23 19 44 34 47 34 3 0 6 -26 7 -57 0 -37 3 -51
8 -39 7 19 8 19 30 -3 29 -29 51 -82 51 -122 0 -18 -10 -63 -22 -100 -18 -58
-26 -69 -52 -78 l-31 -10 33 5 c18 3 32 1 32 -4 0 -21 -24 -112 -29 -112 -3 0
-6 -24 -7 -53 0 -28 -3 -67 -7 -84 l-6 -33 163 0 163 0 -4 77 c-2 43 -8 116
-13 163 -5 47 -5 89 0 93 9 10 18 -36 24 -123 3 -30 8 -90 12 -132 l7 -78 214
0 214 0 -4 108 c-4 99 -8 119 -61 271 -31 90 -55 166 -52 169 9 9 66 -20 81
-42 12 -16 15 -17 15 -4 0 26 -106 107 -150 113 -8 2 -42 6 -75 10 -70 9 -84
15 -133 59 -21 18 -54 39 -74 45 -21 7 -38 17 -38 22 0 5 -11 9 -25 9 -13 0
-34 4 -47 9 -13 6 -40 12 -60 16 -32 5 -38 10 -38 30 0 14 8 29 19 35 33 17
101 12 138 -11 27 -17 43 -20 76 -14 40 6 43 9 76 77 33 68 34 74 32 177 -1
58 -3 130 -3 159 -1 34 -6 52 -14 52 -15 0 -24 23 -24 61 0 16 5 29 13 29 8 0
8 3 -2 9 -11 7 -10 10 5 14 14 3 12 5 -7 6 -29 1 -45 28 -55 90 -6 36 12 71
35 71 20 0 43 -43 51 -96 10 -71 32 -157 61 -239 33 -93 35 -97 77 -93 l36 3
-3 58 c-2 45 2 63 16 79 15 17 16 21 3 29 -8 4 -21 13 -29 18 -18 12 -29 121
-12 121 6 0 11 -8 11 -17 0 -15 2 -15 14 2 10 14 11 23 3 37 -8 12 -13 14 -19
5 -4 -6 -10 -9 -13 -5 -11 11 -18 85 -11 121 5 28 11 35 32 35 13 0 28 -8 33
-17 5 -9 12 -68 15 -131 4 -63 14 -158 21 -210 12 -80 18 -98 40 -117 14 -13
30 -23 36 -23 5 0 9 75 9 184 l0 184 -36 49 c-20 26 -55 67 -77 90 -66 69 -37
58 41 -15 l72 -67 0 222 0 223 -196 0 -196 0 6 -22 c3 -13 9 -47 12 -75 6 -46
4 -53 -10 -53 -23 0 -69 24 -123 66 -26 20 -68 46 -94 60 l-48 24 -339 0 -338
0 -109 -55 c-61 -30 -116 -55 -122 -55 -9 0 -13 18 -13 55 l0 55 -215 0 -215
0 0 -191z m1295 147 c93 -25 284 -99 264 -103 -9 -2 -40 6 -70 18 -189 76
-289 93 -504 86 -184 -5 -364 -34 -500 -78 -92 -31 -244 -100 -303 -139 -23
-16 -30 -18 -26 -7 4 12 56 40 218 120 49 24 195 68 289 86 204 41 508 49 632
17z m338 -132 c18 -9 39 -22 47 -29 8 -7 40 -25 70 -41 65 -32 90 -52 90 -70
0 -9 -11 -7 -36 9 -19 12 -43 27 -52 32 -10 6 -32 21 -51 34 -18 13 -56 37
-85 52 -53 30 -39 41 17 13z m-725 -134 c42 -26 85 -87 147 -208 l50 -99 30
19 c20 13 23 18 9 14 -20 -6 -21 -2 -28 85 -4 50 -5 93 -3 96 3 2 18 -18 35
-44 39 -60 61 -88 66 -82 2 2 -1 40 -5 83 -5 44 -7 81 -4 84 7 7 26 -20 74
-106 59 -104 57 -110 -31 -107 l-73 3 61 -7 c72 -7 94 -22 94 -64 0 -30 0 -30
21 -11 22 19 22 19 14 -4 -6 -21 -4 -23 15 -17 20 6 22 4 20 -32 -2 -21 -2
-47 -1 -57 1 -20 1 -20 16 0 13 18 14 16 15 -24 0 -23 -9 -60 -19 -80 -11 -21
-22 -56 -25 -77 l-6 -40 13 40 c12 38 13 38 20 15 7 -26 -17 -75 -32 -66 -4 3
-16 -20 -25 -51 -24 -75 -87 -136 -199 -193 -117 -59 -167 -63 -268 -21 -158
66 -247 147 -276 253 -9 31 -20 55 -24 52 -4 -2 -10 0 -14 6 -3 5 -2 10 4 10
7 0 9 23 5 63 -2 35 0 74 5 88 5 13 10 18 10 12 1 -7 5 -13 10 -13 5 0 8 18 7
41 0 28 5 45 17 54 9 6 17 19 17 26 0 8 7 25 16 37 8 12 11 22 6 22 -25 0 -16
154 13 209 8 16 26 43 41 61 l27 32 18 -70 c17 -69 85 -229 93 -221 3 2 -2 29
-10 59 -17 63 -30 210 -21 234 8 22 35 20 75 -4z m-390 -523 c2 -11 -1 -15
-11 -12 -7 3 -19 0 -25 -8 -16 -18 -4 -54 19 -60 16 -4 18 -11 13 -31 -5 -20
0 -32 24 -56 17 -16 40 -30 51 -30 12 0 21 -2 21 -4 0 -2 3 -11 6 -20 10 -25
-18 -19 -70 15 -54 36 -89 95 -89 151 0 58 52 104 61 55z m982 4 c26 -50 4
-159 -43 -209 -23 -25 -68 -52 -87 -52 -17 0 -11 30 8 37 29 10 82 66 82 87 0
11 -8 28 -17 39 -17 18 -17 19 20 12 35 -7 37 -6 37 18 0 38 -10 57 -31 57
-12 0 -16 5 -13 15 8 21 31 19 44 -4z"/>
<path d="M798 1393 c7 -3 16 -2 19 1 4 3 -2 6 -13 5 -11 0 -14 -3 -6 -6z"/>
<path d="M1149 1270 c-13 -10 -20 -19 -15 -20 5 0 1 -9 -9 -20 -16 -17 -16
-20 -2 -20 9 0 19 4 22 10 17 28 103 31 170 5 18 -7 17 -5 -4 18 -19 21 -34
27 -67 27 -24 0 -55 -5 -70 -10 -37 -14 -42 -5 -7 14 15 8 23 15 17 16 -7 0
-22 -9 -35 -20z"/>
<path d="M669 1241 c-37 -37 -32 -53 7 -22 30 24 106 29 149 9 14 -6 28 -8 33
-3 4 4 1 10 -6 12 -6 3 -10 9 -7 13 3 5 0 12 -6 16 -8 5 -9 3 -4 -6 6 -10 4
-11 -11 -5 -10 4 -42 10 -71 13 -48 4 -55 2 -84 -27z"/>
<path d="M951 1190 c-10 -57 -10 -73 1 -88 11 -17 13 -7 16 69 2 49 2 89 0 89
-2 0 -9 -31 -17 -70z"/>
<path d="M1296 1176 l-29 -13 25 -5 c17 -3 29 1 37 14 13 21 7 21 -33 4z"/>
<path d="M1190 1159 c-35 -6 -35 -6 -4 -8 16 0 34 -5 40 -10 5 -6 14 -4 21 4
16 17 -9 23 -57 14z"/>
<path d="M1320 1100 c-13 -8 -13 -10 2 -10 9 0 19 -8 21 -17 3 -11 5 -7 6 10
1 29 -5 33 -29 17z"/>
<path d="M1278 1083 c7 -3 16 -2 19 1 4 3 -2 6 -13 5 -11 0 -14 -3 -6 -6z"/>
<path d="M1210 1070 c-20 -6 -21 -8 -5 -8 11 0 29 3 40 8 25 11 -1 11 -35 0z"/>
<path d="M638 1063 c6 -2 18 -2 25 0 6 3 1 5 -13 5 -14 0 -19 -2 -12 -5z"/>
<path d="M738 1053 c12 -2 30 -2 40 0 9 3 -1 5 -23 4 -22 0 -30 -2 -17 -4z"/>
<path d="M1103 1053 c9 -2 25 -2 35 0 9 3 1 5 -18 5 -19 0 -27 -2 -17 -5z"/>
<path d="M918 1043 c18 -2 45 -2 60 0 15 2 0 4 -33 4 -33 0 -45 -2 -27 -4z"/>
<path d="M1341 1004 c0 -11 3 -14 6 -6 3 7 2 16 -1 19 -3 4 -6 -2 -5 -13z"/>
<path d="M1268 968 c-14 -14 -15 -18 -4 -18 8 0 17 7 20 16 9 23 4 24 -16 2z"/>
<path d="M1322 965 c-11 -12 -10 -15 3 -15 8 0 15 7 15 15 0 18 -2 18 -18 0z"/>
<path d="M700 950 c0 -6 7 -10 15 -10 8 0 15 2 15 4 0 2 -7 6 -15 10 -8 3 -15
1 -15 -4z"/>
<path d="M1008 933 c6 -2 18 -2 25 0 6 3 1 5 -13 5 -14 0 -19 -2 -12 -5z"/>
<path d="M702 874 c15 -16 42 -37 60 -47 32 -17 32 -17 8 0 -13 10 -40 31 -60
48 l-35 29 27 -30z"/>
<path d="M868 783 c7 -3 16 -2 19 1 4 3 -2 6 -13 5 -11 0 -14 -3 -6 -6z"/>
<path d="M1045 780 c-3 -5 1 -10 10 -10 9 0 13 5 10 10 -3 6 -8 10 -10 10 -2
0 -7 -4 -10 -10z"/>
<path d="M908 773 c6 -2 18 -2 25 0 6 3 1 5 -13 5 -14 0 -19 -2 -12 -5z"/>
<path d="M517 1985 c-4 -8 -2 -17 3 -20 6 -4 10 3 10 14 0 25 -6 27 -13 6z"/>
<path d="M580 1985 c0 -8 5 -15 10 -15 6 0 10 7 10 15 0 8 -4 15 -10 15 -5 0
-10 -7 -10 -15z"/>
<path d="M492 1940 c0 -14 2 -19 5 -12 2 6 2 18 0 25 -3 6 -5 1 -5 -13z"/>
<path d="M1841 1514 c0 -11 3 -14 6 -6 3 7 2 16 -1 19 -3 4 -6 -2 -5 -13z"/>
<path d="M1841 1394 c0 -11 3 -14 6 -6 3 7 2 16 -1 19 -3 4 -6 -2 -5 -13z"/>
<path d="M1841 1354 c0 -11 3 -14 6 -6 3 7 2 16 -1 19 -3 4 -6 -2 -5 -13z"/>
<path d="M1740 1130 c-8 -5 -10 -10 -5 -10 6 0 17 5 25 10 8 5 11 10 5 10 -5
0 -17 -5 -25 -10z"/>
<path d="M1841 1114 c0 -11 3 -14 6 -6 3 7 2 16 -1 19 -3 4 -6 -2 -5 -13z"/>
<path d="M1752 1003 c-28 -4 -31 -7 -21 -19 9 -11 9 -18 1 -26 -8 -8 6 -26 49
-67 37 -36 59 -65 59 -79 0 -26 17 -30 22 -5 2 13 8 8 21 -17 l18 -35 -6 60
c-12 119 -13 110 19 107 16 -2 42 -10 58 -18 l28 -15 0 35 c0 32 -3 35 -65 60
-62 25 -101 29 -183 19z"/>
<path d="M1501 813 c-1 -17 16 -25 25 -12 4 7 3 9 -4 5 -5 -3 -13 0 -15 6 -4
9 -6 10 -6 1z"/>
<path d="M1840 760 c0 -5 5 -10 10 -10 6 0 10 5 10 10 0 6 -4 10 -10 10 -5 0
-10 -4 -10 -10z"/>
<path d="M1840 720 c0 -5 5 -10 10 -10 6 0 10 5 10 10 0 6 -4 10 -10 10 -5 0
-10 -4 -10 -10z"/>
<path d="M1840 680 c0 -5 5 -10 10 -10 6 0 10 5 10 10 0 6 -4 10 -10 10 -5 0
-10 -4 -10 -10z"/>
<path d="M1840 640 c0 -5 5 -10 10 -10 6 0 10 5 10 10 0 6 -4 10 -10 10 -5 0
-10 -4 -10 -10z"/>
<path d="M1975 579 c-8 -23 -1 -34 14 -24 13 8 15 45 2 45 -5 0 -13 -9 -16
-21z"/>
<path d="M730 297 c0 -3 26 -14 58 -24 31 -9 74 -32 95 -50 37 -33 61 -41 71
-24 9 14 -40 60 -71 66 -31 6 -108 24 -135 32 -10 3 -18 3 -18 0z"/>
<path d="M1178 273 c7 -3 16 -2 19 1 4 3 -2 6 -13 5 -11 0 -14 -3 -6 -6z"/>
<path d="M1101 252 c-19 -9 -36 -23 -39 -29 -5 -16 24 -17 34 -2 3 6 20 19 38
30 38 23 14 24 -33 1z"/>
<path d="M758 163 c7 -3 16 -2 19 1 4 3 -2 6 -13 5 -11 0 -14 -3 -6 -6z"/>
<path d="M798 163 c7 -3 16 -2 19 1 4 3 -2 6 -13 5 -11 0 -14 -3 -6 -6z"/>
<path d="M838 163 c7 -3 16 -2 19 1 4 3 -2 6 -13 5 -11 0 -14 -3 -6 -6z"/>
<path d="M878 163 c7 -3 16 -2 19 1 4 3 -2 6 -13 5 -11 0 -14 -3 -6 -6z"/>
<path d="M918 163 c7 -3 16 -2 19 1 4 3 -2 6 -13 5 -11 0 -14 -3 -6 -6z"/>
<path d="M958 163 c7 -3 16 -2 19 1 4 3 -2 6 -13 5 -11 0 -14 -3 -6 -6z"/>
<path d="M998 163 c7 -3 16 -2 19 1 4 3 -2 6 -13 5 -11 0 -14 -3 -6 -6z"/>
<path d="M1038 163 c7 -3 16 -2 19 1 4 3 -2 6 -13 5 -11 0 -14 -3 -6 -6z"/>
<path d="M1078 163 c7 -3 16 -2 19 1 4 3 -2 6 -13 5 -11 0 -14 -3 -6 -6z"/>
<path d="M1118 163 c7 -3 16 -2 19 1 4 3 -2 6 -13 5 -11 0 -14 -3 -6 -6z"/>
<path d="M1158 163 c7 -3 16 -2 19 1 4 3 -2 6 -13 5 -11 0 -14 -3 -6 -6z"/>
<path d="M1198 163 c7 -3 16 -2 19 1 4 3 -2 6 -13 5 -11 0 -14 -3 -6 -6z"/>
<path d="M970 16 c0 -9 5 -16 10 -16 6 0 10 4 10 9 0 6 -4 13 -10 16 -5 3 -10
-1 -10 -9z"/>
</g>
</svg>
